<svg xmlns="http://www.w3.org/2000/svg" viewBox="0 0 200 200">
  <circle cx="100" cy="100" r="95" fill="none" stroke="#c0c0c0" stroke-width="3"/>
  <circle cx="100" cy="100" r="88" fill="none" stroke="#808080" stroke-width="1"/>
  <path d="M100 25 C80 25 60 30 50 35" fill="none"/>
  <text font-family="Times New Roman,serif" font-size="14" font-weight="bold" fill="#333">
    <textPath href="#topArc">KEBBI STATE GOVERNMENT</textPath>
  </text>
  <defs>
    <path id="topArc" d="M30 100 A70 70 0 0 1 170 100"/>
    <path id="bottomArc" d="M40 115 A65 65 0 0 0 160 115"/>
  </defs>
  <text font-family="Times New Roman,serif" font-size="14" font-weight="bold" fill="#333" text-anchor="middle">
    <textPath href="#topArc" startOffset="50%">KEBBI STATE GOVERNMENT</textPath>
  </text>
  <text font-family="Times New Roman,serif" font-size="16" font-weight="bold" fill="#333" text-anchor="middle">
    <textPath href="#bottomArc" startOffset="50%">NIGERIA</textPath>
  </text>
  <!-- Shield -->
  <path d="M85 60 L115 60 L115 100 L100 115 L85 100 Z" fill="#006600" stroke="#333" stroke-width="1.5"/>
  <line x1="100" y1="60" x2="100" y2="115" stroke="#fff" stroke-width="1"/>
  <rect x="88" y="72" width="24" height="3" fill="#fff"/>
  <!-- Eagle -->
  <g transform="translate(100,50) scale(0.4)">
    <path d="M0-20 L-15 0 L-25 5 L-15 5 L-5 15 L0 10 L5 15 L15 5 L25 5 L15 0 Z" fill="#8B0000"/>
  </g>
  <!-- Horses -->
  <g transform="translate(65,85) scale(0.3)">
    <ellipse cx="0" cy="0" rx="8" ry="15" fill="#c0c0c0" stroke="#666" stroke-width="1"/>
    <line x1="0" y1="15" x2="-5" y2="30" stroke="#666" stroke-width="2"/>
    <line x1="0" y1="15" x2="5" y2="30" stroke="#666" stroke-width="2"/>
    <ellipse cx="0" cy="-18" rx="5" ry="8" fill="#c0c0c0" stroke="#666" stroke-width="1"/>
  </g>
  <g transform="translate(135,85) scale(0.3) scale(-1,1)">
    <ellipse cx="0" cy="0" rx="8" ry="15" fill="#c0c0c0" stroke="#666" stroke-width="1"/>
    <line x1="0" y1="15" x2="-5" y2="30" stroke="#666" stroke-width="2"/>
    <line x1="0" y1="15" x2="5" y2="30" stroke="#666" stroke-width="2"/>
    <ellipse cx="0" cy="-18" rx="5" ry="8" fill="#c0c0c0" stroke="#666" stroke-width="1"/>
  </g>
  <!-- Motto ribbon -->
  <rect x="72" y="118" width="56" height="14" rx="2" fill="#cc0000" stroke="#990000" stroke-width="0.5"/>
  <text x="100" y="128" font-family="Times New Roman,serif" font-size="5" fill="#fff" text-anchor="middle" font-weight="bold">UNITY AND FAITH, PEACE AND PROGRESS</text>
  <!-- Stars -->
  <circle cx="30" cy="55" r="3" fill="#333"/>
  <circle cx="170" cy="55" r="3" fill="#333"/>
</svg>
